HIERARCHY
ROOT Hips
{
	OFFSET 0.000000 100.481300 0.000000
	CHANNELS 6 Xposition Yposition Zposition Xrotation Yrotation Zrotation
	JOINT Spine
	{
		OFFSET -0.279200 12.230698 -2.892100
		CHANNELS 3 Xrotation Yrotation Zrotation
		JOINT Spine1
		{
			OFFSET -0.325700 14.269203 -3.374200
			CHANNELS 3 Xrotation Yrotation Zrotation
			JOINT Spine2
			{
				OFFSET -0.372300 16.307602 -0.352600
				CHANNELS 3 Xrotation Yrotation Zrotation
				JOINT Neck
				{
					OFFSET -0.418800 17.814194 8.416900
					CHANNELS 3 Xrotation Yrotation Zrotation
					JOINT Head
					{
						OFFSET 0.000000 7.031097 3.806800
						CHANNELS 3 Xrotation Yrotation Zrotation
						JOINT HeadTop_End
						{
							OFFSET 0.000000 24.646606 12.978600
							CHANNELS 3 Xrotation Yrotation Zrotation
							End Site
							{
								OFFSET 0.000000 27.854965 0.000000
							}
						}
					}
				}
				JOINT LeftShoulder
				{
					OFFSET 16.952999 14.495407 -7.737500
					CHANNELS 3 Xrotation Yrotation Zrotation
					JOINT LeftArm
					{
						OFFSET 9.308998 -2.777710 0.208600
						CHANNELS 3 Xrotation Yrotation Zrotation
						JOINT LeftForeArm
						{
							OFFSET 29.972298 0.000000 0.000000
							CHANNELS 3 Xrotation Yrotation Zrotation
							JOINT LeftHand
							{
								OFFSET 26.026505 0.000000 0.000000
								CHANNELS 3 Xrotation Yrotation Zrotation
								JOINT LeftHandThumb1
								{
									OFFSET 12.240501 -7.147949 9.207150
									CHANNELS 3 Xrotation Yrotation Zrotation
									JOINT LeftHandThumb2
									{
										OFFSET 4.138618 -2.389435 2.389433
										CHANNELS 3 Xrotation Yrotation Zrotation
										JOINT LeftHandThumb3
										{
											OFFSET 2.726913 -1.574387 1.574386
											CHANNELS 3 Xrotation Yrotation Zrotation
											JOINT LeftHandThumb4
											{
												OFFSET 3.941010 -2.275345 2.275342
												CHANNELS 3 Xrotation Yrotation Zrotation
												End Site
												{
													OFFSET -0.005798 5.087799 0.009903
												}
											}
										}
									}
								}
								JOINT LeftHandIndex1
								{
									OFFSET 24.424698 -1.985611 5.953459
									CHANNELS 3 Xrotation Yrotation Zrotation
									JOINT LeftHandIndex2
									{
										OFFSET 6.426697 0.000000 0.000000
										CHANNELS 3 Xrotation Yrotation Zrotation
										JOINT LeftHandIndex3
										{
											OFFSET 5.337898 0.000000 0.000000
											CHANNELS 3 Xrotation Yrotation Zrotation
											JOINT LeftHandIndex4
											{
												OFFSET 4.409401 0.000000 0.000000
												CHANNELS 3 Xrotation Yrotation Zrotation
												End Site
												{
													OFFSET 0.000000 4.409363 0.014373
												}
											}
										}
									}
								}
								JOINT LeftHandMiddle1
								{
									OFFSET 23.810104 0.000000 0.000000
									CHANNELS 3 Xrotation Yrotation Zrotation
									JOINT LeftHandMiddle2
									{
										OFFSET 7.176498 0.000000 0.000000
										CHANNELS 3 Xrotation Yrotation Zrotation
										JOINT LeftHandMiddle3
										{
											OFFSET 6.774902 0.000000 0.000000
											CHANNELS 3 Xrotation Yrotation Zrotation
											JOINT LeftHandMiddle4
											{
												OFFSET 5.403328 0.000000 0.000000
												CHANNELS 3 Xrotation Yrotation Zrotation
												End Site
												{
													OFFSET -0.027702 5.403244 0.017414
												}
											}
										}
									}
								}
								JOINT LeftHandRing1
								{
									OFFSET 22.908401 -0.839279 -6.020567
									CHANNELS 3 Xrotation Yrotation Zrotation
									JOINT LeftHandRing2
									{
										OFFSET 6.337502 0.000000 0.000000
										CHANNELS 3 Xrotation Yrotation Zrotation
										JOINT LeftHandRing3
										{
											OFFSET 5.779297 0.000000 0.000000
											CHANNELS 3 Xrotation Yrotation Zrotation
											JOINT LeftHandRing4
											{
												OFFSET 4.965698 0.000000 0.000000
												CHANNELS 3 Xrotation Yrotation Zrotation
												End Site
												{
													OFFSET 0.000000 4.965668 0.016186
												}
											}
										}
									}
								}
								JOINT LeftHandPinky1
								{
									OFFSET 20.037003 -1.530319 -10.950146
									CHANNELS 3 Xrotation Yrotation Zrotation
									JOINT LeftHandPinky2
									{
										OFFSET 5.254700 0.000000 0.000000
										CHANNELS 3 Xrotation Yrotation Zrotation
										JOINT LeftHandPinky3
										{
											OFFSET 4.810204 0.000000 0.000000
											CHANNELS 3 Xrotation Yrotation Zrotation
											JOINT LeftHandPinky4
											{
												OFFSET 3.647202 0.000000 0.000000
												CHANNELS 3 Xrotation Yrotation Zrotation
												End Site
												{
													OFFSET 0.000000 3.647186 0.011889
												}
											}
										}
									}
								}
							}
						}
					}
				}
				JOINT RightShoulder
				{
					OFFSET -15.141001 14.495407 -7.737500
					CHANNELS 3 Xrotation Yrotation Zrotation
					JOINT RightArm
					{
						OFFSET -9.308998 -2.777710 0.208500
						CHANNELS 3 Xrotation Yrotation Zrotation
						JOINT RightForeArm
						{
							OFFSET -29.972300 0.000000 0.000000
							CHANNELS 3 Xrotation Yrotation Zrotation
							JOINT RightHand
							{
								OFFSET -26.026505 0.000000 0.000000
								CHANNELS 3 Xrotation Yrotation Zrotation
								JOINT RightHandThumb1
								{
									OFFSET -12.240601 -7.148026 9.207092
									CHANNELS 3 Xrotation Yrotation Zrotation
									JOINT RightHandThumb2
									{
										OFFSET -4.138618 -2.389435 2.389433
										CHANNELS 3 Xrotation Yrotation Zrotation
										JOINT RightHandThumb3
										{
											OFFSET -2.726974 -1.574417 1.574421
											CHANNELS 3 Xrotation Yrotation Zrotation
											JOINT RightHandThumb4
											{
												OFFSET -3.941010 -2.275345 2.275343
												CHANNELS 3 Xrotation Yrotation Zrotation
												End Site
												{
													OFFSET 0.005814 5.087799 0.009927
												}
											}
										}
									}
								}
								JOINT RightHandIndex1
								{
									OFFSET -24.424698 -1.985657 5.953444
									CHANNELS 3 Xrotation Yrotation Zrotation
									JOINT RightHandIndex2
									{
										OFFSET -6.426697 0.000000 0.000000
										CHANNELS 3 Xrotation Yrotation Zrotation
										JOINT RightHandIndex3
										{
											OFFSET -5.337898 0.000000 0.000000
											CHANNELS 3 Xrotation Yrotation Zrotation
											JOINT RightHandIndex4
											{
												OFFSET -4.409401 0.000000 0.000000
												CHANNELS 3 Xrotation Yrotation Zrotation
												End Site
												{
													OFFSET 0.000000 4.409363 0.014408
												}
											}
										}
									}
								}
								JOINT RightHandMiddle1
								{
									OFFSET -23.810097 0.000000 0.000000
									CHANNELS 3 Xrotation Yrotation Zrotation
									JOINT RightHandMiddle2
									{
										OFFSET -7.176498 0.000000 0.000000
										CHANNELS 3 Xrotation Yrotation Zrotation
										JOINT RightHandMiddle3
										{
											OFFSET -6.774902 0.000000 0.000000
											CHANNELS 3 Xrotation Yrotation Zrotation
											JOINT RightHandMiddle4
											{
												OFFSET -5.403328 0.000000 0.000000
												CHANNELS 3 Xrotation Yrotation Zrotation
												End Site
												{
													OFFSET 0.027702 5.403244 0.017457
												}
											}
										}
									}
								}
								JOINT RightHandRing1
								{
									OFFSET -22.908302 -0.839325 -6.020576
									CHANNELS 3 Xrotation Yrotation Zrotation
									JOINT RightHandRing2
									{
										OFFSET -6.337502 0.000000 0.000000
										CHANNELS 3 Xrotation Yrotation Zrotation
										JOINT RightHandRing3
										{
											OFFSET -5.779297 0.000000 0.000000
											CHANNELS 3 Xrotation Yrotation Zrotation
											JOINT RightHandRing4
											{
												OFFSET -4.965698 0.000000 0.000000
												CHANNELS 3 Xrotation Yrotation Zrotation
												End Site
												{
													OFFSET 0.000000 4.965668 0.016226
												}
											}
										}
									}
								}
								JOINT RightHandPinky1
								{
									OFFSET -20.037003 -1.530334 -10.950259
									CHANNELS 3 Xrotation Yrotation Zrotation
									JOINT RightHandPinky2
									{
										OFFSET -5.254700 0.000000 0.000000
										CHANNELS 3 Xrotation Yrotation Zrotation
										JOINT RightHandPinky3
										{
											OFFSET -4.810204 0.000000 0.000000
											CHANNELS 3 Xrotation Yrotation Zrotation
											JOINT RightHandPinky4
											{
												OFFSET -3.647202 0.000000 0.000000
												CHANNELS 3 Xrotation Yrotation Zrotation
												End Site
												{
													OFFSET 0.000000 3.647186 0.011917
												}
											}
										}
									}
								}
							}
						}
					}
				}
			}
		}
	}
	JOINT LeftUpLeg
	{
		OFFSET 15.427100 -6.655098 0.678600
		CHANNELS 3 Xrotation Yrotation Zrotation
		JOINT LeftLeg
		{
			OFFSET 4.081073 -39.591068 13.024000
			CHANNELS 3 Xrotation Yrotation Zrotation
			JOINT LeftFoot
			{
				OFFSET -4.081074 -37.707932 -15.979700
				CHANNELS 3 Xrotation Yrotation Zrotation
				JOINT LeftToeBase
				{
					OFFSET 5.346399 -15.068900 20.645000
					CHANNELS 3 Xrotation Yrotation Zrotation
					JOINT LeftToe_End
					{
						OFFSET 2.754700 0.931300 11.300900
						CHANNELS 3 Xrotation Yrotation Zrotation
						End Site
						{
							OFFSET 0.000000 11.669021 0.000000
						}
					}
				}
			}
		}
	}
	JOINT RightUpLeg
	{
		OFFSET -15.569500 -6.655098 0.678600
		CHANNELS 3 Xrotation Yrotation Zrotation
		JOINT RightLeg
		{
			OFFSET -4.081825 -39.591045 13.023800
			CHANNELS 3 Xrotation Yrotation Zrotation
			JOINT RightFoot
			{
				OFFSET 4.081824 -37.707954 -15.979600
				CHANNELS 3 Xrotation Yrotation Zrotation
				JOINT RightToeBase
				{
					OFFSET -5.346400 -15.068900 20.645000
					CHANNELS 3 Xrotation Yrotation Zrotation
					JOINT RightToe_End
					{
						OFFSET -2.754700 0.931300 11.300900
						CHANNELS 3 Xrotation Yrotation Zrotation
						End Site
						{
							OFFSET 0.000000 11.669021 0.000000
						}
					}
				}
			}
		}
	}
}
MOTION
Frames: 6
Frame Time: 0.033333
12.948454 25.885513 -46.401237 72.290797 4.589345 16.026330 17.168854 3.855336 -0.470567 6.522262 -3.390671 -0.283104 6.760465 -3.287535 -0.004051 -27.322194 15.299441 -5.304662 -24.390944 -3.030205 -8.307727 0.000003 -0.000000 -0.000001 -49.075783 -10.241536 9.363899 -55.334829 0.216104 -63.524127 0.000972 -92.718302 0.000946 -110.931684 23.330907 49.578021 -8.024625 -2.940219 18.442795 19.473197 -1.474900 7.636928 -4.536180 -9.613116 1.492979 -0.000004 -0.000000 -0.000000 -1.557077 0.326729 -25.893944 5.832715 5.851051 -89.820061 2.174356 4.554701 -51.020301 0.000002 0.000000 -0.000001 0.405926 5.507044 -52.453155 7.356326 5.654767 -104.932620 0.282011 1.797461 -17.832384 -0.000003 -0.000002 -0.000001 -0.074393 5.736766 -61.061420 6.959226 5.745536 -100.936023 0.582680 2.548969 -25.748008 0.000002 0.000000 0.000001 2.216800 7.072460 -64.435417 4.422635 5.674622 -75.845754 1.294114 3.673917 -38.798463 0.000002 0.000001 -0.000000 8.592612 38.590815 -16.805696 -57.749017 17.227229 18.943900 -0.000001 126.204493 -0.000004 9.393436 -33.263878 -11.729844 -9.476503 -17.905928 25.099014 -34.172642 -6.075026 -29.934820 -6.638220 -5.656528 -63.729558 -0.000000 -0.000000 0.000003 -0.494196 9.886802 3.052974 4.494099 -4.654307 87.991107 2.254388 -3.990647 58.912301 0.000001 -0.000000 -0.000000 -1.065177 -5.946105 79.423659 6.168677 -4.405566 108.957978 0.248421 -1.502223 18.779387 -0.000001 -0.000000 0.000002 -3.680513 -6.031698 83.530304 4.754011 -4.656169 91.192697 0.698700 -2.455488 31.763197 -0.000000 -0.000001 0.000002 -3.541909 -7.108353 91.053293 2.431522 -4.091973 61.425428 1.871276 -3.733477 53.228969 0.000000 -0.000002 -0.000001 -123.961254 26.423044 4.887449 123.694207 -2.117465 4.506335 31.560702 -15.894747 -17.337003 30.853153 -42.316526 -33.960537 -0.000000 -0.000001 -0.000000 -5.059936 -6.751907 -17.118858 26.504807 -9.659754 -10.050923 30.419286 -22.630478 27.501647 7.160196 -8.171789 -33.283300 0.000002 0.000002 0.000001 
12.397293 25.709526 -46.748772 69.821329 4.676076 16.127931 18.428566 4.178528 -0.902796 6.924036 -2.857480 -0.075377 7.122484 -2.721795 0.152550 -23.849586 18.669351 -6.978610 -26.627216 -7.889207 -10.108160 0.000001 0.000000 0.000000 -49.111990 -6.320257 6.318522 -54.446689 0.391789 -65.745871 0.000269 -95.654655 0.000315 -109.759794 23.255756 54.785490 -8.024630 -2.940218 18.442790 19.473195 -1.474898 7.636926 -4.536179 -9.613120 1.492978 -0.000000 -0.000002 -0.000001 -1.557076 0.326730 -25.893947 5.832713 5.851053 -89.820068 2.174357 4.554699 -51.020301 -0.000001 0.000001 -0.000001 0.405925 5.507044 -52.453155 7.356325 5.654762 -104.932620 0.282010 1.797459 -17.832381 -0.000000 -0.000001 0.000000 -0.074393 5.736766 -61.061420 6.959226 5.745536 -100.936023 0.582683 2.548969 -25.748003 -0.000000 -0.000001 0.000002 2.216801 7.072461 -64.435417 4.422634 5.674616 -75.845754 1.294117 3.673917 -38.798466 -0.000001 -0.000000 0.000001 9.815070 36.979115 -20.080633 -57.840480 16.616792 22.674486 0.000027 126.409671 -0.000030 8.077103 -31.690620 -9.577796 -9.476502 -17.905933 25.099016 -34.172645 -6.075020 -29.934820 -6.638221 -5.656528 -63.729565 -0.000003 0.000003 -0.000000 -0.494196 9.886803 3.052973 4.494099 -4.654309 87.991107 2.254389 -3.990647 58.912308 -0.000000 -0.000000 -0.000000 -1.065177 -5.946105 79.423659 6.168676 -4.405564 108.957978 0.248422 -1.502228 18.779392 -0.000000 -0.000001 0.000000 -3.680514 -6.031699 83.530304 4.754011 -4.656165 91.192704 0.698701 -2.455488 31.763190 -0.000002 0.000002 -0.000003 -3.541906 -7.108356 91.053286 2.431521 -4.091974 61.425428 1.871276 -3.733477 53.228969 0.000002 -0.000001 0.000001 -120.119409 20.514145 8.694907 123.819677 -3.176574 2.112753 30.936724 -20.536960 -13.859752 33.040979 -42.459618 -32.872030 -0.000001 -0.000001 0.000000 -1.497201 -8.475978 -14.229932 25.280813 -12.823078 -11.473365 30.178860 -28.721728 29.560383 6.956786 -7.221975 -28.774405 0.000002 0.000002 0.000001 
11.682722 25.722984 -47.406570 68.320176 5.128608 15.656049 19.341747 4.494124 -1.586074 7.070826 -2.434219 0.076367 7.239872 -2.280911 0.273198 -20.509451 20.072717 -7.283575 -29.243841 -10.546814 -11.731794 -0.000001 0.000000 -0.000000 -48.982155 -3.813294 3.835068 -52.545864 2.088449 -67.637369 0.000186 -99.027737 0.000192 -107.952656 21.911114 56.899564 -8.024630 -2.940220 18.442791 19.473202 -1.474902 7.636928 -4.536180 -9.613117 1.492977 0.000001 -0.000004 -0.000001 -1.557077 0.326730 -25.893946 5.832710 5.851050 -89.820061 2.174357 4.554705 -51.020304 0.000001 -0.000002 0.000001 0.405918 5.507041 -52.453162 7.356325 5.654768 -104.932620 0.282011 1.797460 -17.832384 -0.000000 0.000001 -0.000002 -0.074393 5.736764 -61.061420 6.959226 5.745538 -100.936023 0.582682 2.548969 -25.748001 -0.000000 -0.000001 0.000001 2.216796 7.072455 -64.435417 4.422633 5.674620 -75.845754 1.294113 3.673918 -38.798463 0.000003 0.000004 -0.000003 9.884430 34.796231 -21.494257 -59.155729 16.744883 26.660312 -0.000041 125.297990 0.000056 9.462274 -28.326774 -3.850700 -9.476503 -17.905933 25.099014 -34.172645 -6.075027 -29.934817 -6.638222 -5.656534 -63.729558 -0.000001 0.000005 -0.000002 -0.494196 9.886803 3.052969 4.494098 -4.654310 87.991100 2.254389 -3.990647 58.912308 -0.000000 0.000001 -0.000001 -1.065177 -5.946107 79.423659 6.168676 -4.405566 108.957978 0.248420 -1.502225 18.779387 0.000000 0.000001 0.000000 -3.680513 -6.031699 83.530304 4.754012 -4.656165 91.192697 0.698702 -2.455488 31.763194 0.000001 -0.000001 0.000001 -3.541909 -7.108355 91.053293 2.431522 -4.091972 61.425428 1.871276 -3.733477 53.228969 0.000000 -0.000000 0.000002 -112.997734 10.858782 23.859336 123.238018 -6.322795 -4.364064 35.218839 -28.330269 3.094594 38.932095 -43.289558 -28.414152 0.000001 -0.000000 -0.000000 1.413819 -9.315494 -10.905267 24.307760 -14.694162 -12.331293 26.566443 -32.270287 29.016423 6.937575 -7.050739 -27.635823 0.000001 -0.000002 0.000004 
10.672262 26.528358 -48.259354 68.147768 5.813889 14.762552 19.594631 4.690905 -2.653055 6.921908 -2.045494 0.140650 7.062947 -1.885916 0.319604 -17.530744 19.319047 -6.326974 -31.948237 -10.881560 -12.886558 0.000003 -0.000000 0.000000 -48.822541 -3.128794 1.722444 -49.600772 4.500410 -68.904417 -0.000013 -102.009743 -0.000006 -105.827163 19.673769 55.937709 -8.024636 -2.940220 18.442788 19.473201 -1.474900 7.636927 -4.536180 -9.613119 1.492977 -0.000001 -0.000001 -0.000000 -1.557077 0.326731 -25.893946 5.832712 5.851044 -89.820068 2.174360 4.554697 -51.020294 0.000001 -0.000002 0.000001 0.405921 5.507040 -52.453158 7.356325 5.654767 -104.932620 0.282017 1.797462 -17.832381 0.000000 0.000003 -0.000001 -0.074395 5.736766 -61.061420 6.959222 5.745541 -100.936023 0.582684 2.548969 -25.748005 0.000003 -0.000001 -0.000000 2.216797 7.072457 -64.435410 4.422634 5.674625 -75.845754 1.294113 3.673918 -38.798466 -0.000002 0.000001 0.000002 8.869766 32.717624 -20.531361 -60.734848 17.656034 29.672766 -0.000002 123.039260 0.000010 11.891866 -23.664176 3.277163 -9.476507 -17.905933 25.099014 -34.172649 -6.075023 -29.934820 -6.638219 -5.656524 -63.729565 -0.000001 0.000003 -0.000000 -0.494197 9.886802 3.052973 4.494098 -4.654309 87.991100 2.254389 -3.990647 58.912301 0.000002 -0.000002 -0.000000 -1.065178 -5.946106 79.423659 6.168674 -4.405566 108.957978 0.248423 -1.502225 18.779390 -0.000002 -0.000001 0.000002 -3.680513 -6.031700 83.530304 4.754011 -4.656168 91.192704 0.698703 -2.455490 31.763194 0.000000 0.000001 -0.000001 -3.541910 -7.108355 91.053293 2.431523 -4.091975 61.425428 1.871276 -3.733477 53.228969 0.000001 -0.000000 -0.000001 -105.533048 5.056930 31.066142 122.535165 -8.646062 -8.583992 33.629372 -31.421090 10.574711 48.679595 -43.767227 -21.102793 0.000001 0.000001 0.000000 2.211912 -8.468810 -7.855231 23.792981 -15.670788 -12.744246 23.332797 -32.493693 26.635445 7.597984 -8.071230 -29.929677 0.000001 -0.000002 0.000002 
9.539364 27.497963 -49.354858 69.331461 6.313904 13.360479 19.173581 4.749227 -3.883584 6.544236 -1.691176 0.054460 6.658925 -1.535083 0.222745 -15.115263 16.849518 -4.612622 -34.331690 -9.503162 -13.078764 0.000004 -0.000000 0.000000 -48.702357 -3.993182 -0.350259 -46.644345 6.522364 -69.085082 0.000050 -103.797292 0.000071 -104.339793 17.368655 53.372877 -8.024630 -2.940219 18.442797 19.473199 -1.474897 7.636928 -4.536173 -9.613118 1.492978 0.000000 0.000002 0.000000 -1.557076 0.326729 -25.893947 5.832713 5.851047 -89.820068 2.174359 4.554699 -51.020297 0.000003 0.000001 -0.000001 0.405921 5.507042 -52.453151 7.356325 5.654770 -104.932620 0.282007 1.797460 -17.832377 -0.000002 -0.000001 0.000004 -0.074395 5.736767 -61.061420 6.959226 5.745539 -100.936023 0.582682 2.548967 -25.748000 0.000002 0.000002 -0.000001 2.216798 7.072459 -64.435410 4.422633 5.674618 -75.845754 1.294117 3.673917 -38.798463 0.000001 0.000002 0.000001 7.429455 31.202859 -18.048357 -61.978475 19.118043 31.648194 0.000036 120.514399 -0.000044 14.413939 -19.369206 9.697442 -9.476505 -17.905930 25.099009 -34.172642 -6.075024 -29.934824 -6.638222 -5.656532 -63.729558 0.000001 -0.000002 -0.000001 -0.494197 9.886804 3.052969 4.494097 -4.654309 87.991107 2.254389 -3.990652 58.912301 -0.000000 -0.000002 0.000001 -1.065175 -5.946106 79.423659 6.168674 -4.405564 108.957978 0.248420 -1.502226 18.779392 0.000001 -0.000001 -0.000000 -3.680512 -6.031700 83.530304 4.754010 -4.656166 91.192704 0.698703 -2.455488 31.763187 0.000003 -0.000000 -0.000001 -3.541909 -7.108356 91.053293 2.431521 -4.091974 61.425428 1.871274 -3.733477 53.228972 -0.000000 -0.000000 0.000001 -103.297281 0.466789 33.313971 122.499579 -9.063553 -9.646046 28.103869 -33.364238 8.145382 59.559646 -47.092218 -12.495559 0.000000 -0.000002 -0.000000 0.252396 -6.071480 -5.143454 25.092587 -15.121257 -12.508337 21.993346 -32.192826 24.798262 8.185112 -9.193240 -33.436532 -0.000003 0.000002 -0.000001 
8.409664 28.397423 -50.612358 71.440924 6.559169 11.437828 18.382674 4.290217 -5.005056 6.084727 -1.466799 -0.198536 6.183127 -1.321720 -0.036595 -13.984134 13.323595 -2.538140 -35.537508 -7.134655 -11.862773 0.000002 0.000000 0.000000 -48.682412 -5.861183 -2.356232 -45.206328 7.721217 -67.831729 -0.000002 -104.473529 -0.000001 -104.241664 15.841343 51.058618 -8.024628 -2.940219 18.442791 19.473206 -1.474898 7.636928 -4.536179 -9.613119 1.492979 0.000002 0.000001 -0.000001 -1.557074 0.326729 -25.893946 5.832714 5.851049 -89.820061 2.174358 4.554699 -51.020294 0.000000 0.000001 -0.000000 0.405924 5.507040 -52.453151 7.356326 5.654767 -104.932620 0.282014 1.797459 -17.832379 0.000002 -0.000001 -0.000001 -0.074391 5.736766 -61.061413 6.959227 5.745540 -100.936023 0.582682 2.548971 -25.748003 -0.000001 0.000000 0.000001 2.216802 7.072459 -64.435410 4.422633 5.674620 -75.845754 1.294113 3.673916 -38.798466 -0.000002 0.000002 -0.000001 6.187325 29.870565 -15.714916 -63.366008 20.458017 34.103196 -0.000002 118.846371 -0.000011 17.557452 -16.834137 14.644877 -9.476502 -17.905928 25.099012 -34.172639 -6.075022 -29.934820 -6.638219 -5.656528 -63.729565 -0.000001 0.000001 -0.000001 -0.494195 9.886801 3.052971 4.494099 -4.654308 87.991107 2.254390 -3.990650 58.912301 0.000002 -0.000003 0.000000 -1.065177 -5.946106 79.423653 6.168676 -4.405565 108.957978 0.248421 -1.502228 18.779392 0.000000 0.000000 0.000001 -3.680510 -6.031700 83.530304 4.754012 -4.656169 91.192704 0.698701 -2.455488 31.763190 -0.000002 -0.000000 -0.000001 -3.541909 -7.108354 91.053286 2.431520 -4.091973 61.425428 1.871277 -3.733477 53.228969 -0.000002 -0.000001 -0.000001 -106.290495 -2.528882 30.845688 123.713905 -6.911611 -6.881341 18.326963 -34.964135 -2.718070 -88.278344 36.465888 -50.081099 0.000000 0.000001 -0.000003 -4.039375 -3.016137 -2.425146 28.025916 -13.573824 -11.900532 22.516145 -31.496499 23.990039 7.331716 -9.749829 -37.238516 0.000000 -0.000001 -0.000002 
